<svg id="Layer_1" data-name="Layer 1" xmlns="http://www.w3.org/2000/svg" xmlns:xlink="http://www.w3.org/1999/xlink" viewBox="0 0 480.77 270.86"><defs><style>.cls-1{fill:none;}.cls-2{clip-path:url(#clip-path);}.cls-3{fill:#1c1c1c;}.cls-4{fill:#ea581a;}</style><clipPath id="clip-path" transform="translate(-57.44 -285.37)"><rect class="cls-1" x="57.44" y="285.37" width="480.77" height="270.86"/></clipPath></defs><g class="cls-2"><path class="cls-3" d="M108.47,404.71a6.92,6.92,0,0,0-3.5-6.37,37.78,37.78,0,0,0-8.67-3.54c-3.47-.95-7.2-1.91-11.25-2.8a42,42,0,0,1-11.25-4.16,25.79,25.79,0,0,1-8.71-7.69c-2.34-3.23-3.53-7.65-3.53-13.3a32.47,32.47,0,0,1,2.47-13A28.13,28.13,0,0,1,71,344a36.53,36.53,0,0,1,10.89-6.66,55.52,55.52,0,0,1,14.05-3.5,85.57,85.57,0,0,1,16.89-.46,40.71,40.71,0,0,1,13.13,2.9l-6.27,17.95a27.15,27.15,0,0,0-4.12-1.51,34.94,34.94,0,0,0-5.71-1.13c-2.14-.23-4.45-.39-6.86-.43a56.38,56.38,0,0,0-7.39.4c-4.48.53-7.95,1.78-10.42,3.7a8.68,8.68,0,0,0-3.7,7.16A7,7,0,0,0,85,368.86a37.94,37.94,0,0,0,8.68,3.67c3.46,1,7.19,2,11.25,2.94a46.59,46.59,0,0,1,11.25,4.19,26,26,0,0,1,8.71,7.46c2.34,3.13,3.53,7.39,3.53,12.73a35.44,35.44,0,0,1-2.64,14.2,30.63,30.63,0,0,1-7.56,10.56,37.55,37.55,0,0,1-11.74,7,63.09,63.09,0,0,1-15,3.63,81.7,81.7,0,0,1-10.43.62c-3.26,0-6.3-.16-9.07-.43a68.21,68.21,0,0,1-7.32-1,30.56,30.56,0,0,1-5-1.39l6.53-18.12a29.6,29.6,0,0,0,4.09,1.32c1.75.43,3.7.83,5.84,1.16A55.88,55.88,0,0,0,83,418a47.87,47.87,0,0,0,7.45-.37c5.91-.72,10.43-2.14,13.5-4.25A10,10,0,0,0,108.47,404.71Z" transform="translate(-57.44 -285.37)"/><path class="cls-3" d="M223.66,368.7l2.11-20.36-.79.1-6.4,16-21.7,38.81-6.21.76-23.25-33.54-6.37-14.19-.79.1,2.87,19.47.13,48.78L144.43,427l-.27-97,18-2.18,27.28,41.49,5.15,10.06.66-.06,4.42-11.49,25.83-47.62,17.88-2.18.26,97-19.86,2.41Z" transform="translate(-57.44 -285.37)"/><path class="cls-3" d="M314.35,385.73l-31.74,3.86L275,411.17l-19.89,2.41,36.62-102.21,14.64-1.78,37.25,93.27L322.5,405.4Zm-26.26-13,21.51-2.6-7.33-19.38-3.26-15-.66.07-3.2,15.9Z" transform="translate(-57.44 -285.37)"/><path class="cls-3" d="M399.06,369.52a6.94,6.94,0,0,0-3.5-6.37,37.79,37.79,0,0,0-8.67-3.53c-3.47-.95-7.19-1.91-11.25-2.8a41.44,41.44,0,0,1-11.25-4.19,26,26,0,0,1-8.71-7.69c-2.34-3.24-3.53-7.66-3.53-13.3a32.47,32.47,0,0,1,2.44-13,28.13,28.13,0,0,1,7-9.87,36.55,36.55,0,0,1,10.89-6.67,55.94,55.94,0,0,1,14.05-3.5,87.12,87.12,0,0,1,16.89-.46,40.69,40.69,0,0,1,13.13,2.91L410.24,319a27.06,27.06,0,0,0-4.12-1.52,35,35,0,0,0-5.71-1.12c-2.14-.23-4.45-.4-6.86-.43a56.38,56.38,0,0,0-7.39.4c-4.48.52-8,1.78-10.42,3.69a8.69,8.69,0,0,0-3.7,7.16,7,7,0,0,0,3.53,6.44,37,37,0,0,0,8.68,3.66c3.46,1,7.19,2,11.25,2.94a47,47,0,0,1,11.25,4.19,26.19,26.19,0,0,1,8.71,7.46c2.34,3.14,3.53,7.39,3.53,12.74a35.36,35.36,0,0,1-2.64,14.19,30.32,30.32,0,0,1-7.59,10.56,37.47,37.47,0,0,1-11.74,7,63.18,63.18,0,0,1-15,3.63,78.43,78.43,0,0,1-10.42.63c-3.27,0-6.3-.17-9.07-.43a69.37,69.37,0,0,1-7.33-1.06,30.53,30.53,0,0,1-5-1.38l6.53-18.12a28.89,28.89,0,0,0,4.12,1.32c1.75.43,3.7.82,5.84,1.15a53.86,53.86,0,0,0,6.93.63,46.66,46.66,0,0,0,7.45-.36c5.91-.73,10.43-2.15,13.5-4.26A9.76,9.76,0,0,0,399.06,369.52Z" transform="translate(-57.44 -285.37)"/><path class="cls-3" d="M492.48,344.74l-37.67,4.55.1,40.07L435,391.77l-.27-97,19.9-2.41.1,38.94,37.67-4.55-.1-38.94,19.92-2.41.27,97-19.9,2.4Z" transform="translate(-57.44 -285.37)"/><path class="cls-4" d="M141.29,466.69l-31.44,3.79.24,83.2-21,2.54L88.91,473l-31.44,3.8,0-18.95,83.82-10.16Z" transform="translate(-57.44 -285.37)"/><path class="cls-4" d="M157.82,446.72c2.27-.66,4.75-1.32,7.42-2s5.41-1.26,8.15-1.78,5.41-1,8-1.42,5-.76,7.16-1a83.74,83.74,0,0,1,14.81-.46,37.89,37.89,0,0,1,13,2.94,21.81,21.81,0,0,1,9.31,7.69q3.56,5.19,3.56,13.66c0,8.38-2,15.48-6,21.39a35.17,35.17,0,0,1-16.63,13l7.52,3.63L239,538.07,214.69,541,190,504.44l-11-.39.1,41.28-20.95,2.54ZM190,459.33c-2.17.26-4.25.52-6.3.82a27,27,0,0,0-4.88,1.09l.07,28.18,8.9-1.08q8.91-1.09,14.09-5.22c3.43-2.74,5.15-7,5.15-12.74,0-4.29-1.49-7.36-4.42-9.24S195.49,458.67,190,459.33Z" transform="translate(-57.44 -285.37)"/><path class="cls-4" d="M263.61,444.57,252.3,446l0-11.68L295.87,429l0,11.68-11.32,1.39.2,78.81,11.32-1.39,0,11.68-43.61,5.28,0-11.68,11.31-1.39Z" transform="translate(-57.44 -285.37)"/><path class="cls-4" d="M316.39,427.51q6.39-1.93,14.15-3.53c5.18-1.06,10.4-1.91,15.57-2.54a106.6,106.6,0,0,1,16-.69,37.5,37.5,0,0,1,14.52,3.2A25.21,25.21,0,0,1,387.22,433q4.11,6.14,4.15,17.1A37.61,37.61,0,0,1,387.88,467a36.19,36.19,0,0,1-9.4,12.15A46.09,46.09,0,0,1,365.12,487a64.18,64.18,0,0,1-15.44,3.83l-2.41.29c-1.12.14-2.34.27-3.6.37s-2.47.16-3.59.23-2,0-2.54,0l.1,34.45-20.95,2.55Zm31.21,12.74c-2,.23-3.89.53-5.74.83a25.24,25.24,0,0,0-4.45,1.12l.06,30.36a12.35,12.35,0,0,0,1.85.07c.86,0,1.75,0,2.7-.1s1.82-.13,2.61-.17,1.42-.1,1.91-.16a59.57,59.57,0,0,0,8.22-1.59,22.06,22.06,0,0,0,7.29-3.36,17.44,17.44,0,0,0,5.14-5.81,18.11,18.11,0,0,0,1.95-9.08,12.61,12.61,0,0,0-1.85-7.29,10.81,10.81,0,0,0-4.88-3.86,19.69,19.69,0,0,0-6.93-1.36A53.35,53.35,0,0,0,347.6,440.25Z" transform="translate(-57.44 -285.37)"/><path class="cls-4" d="M423.51,413.62,395.2,417l-1.55,1.84,49.42,43.47-49.15,55.41,1.58,1.45,28.27-3.43,50.8-57.26Z" transform="translate(-57.44 -285.37)"/><path class="cls-4" d="M487.14,404.21l-28.3,3.4-1.55,1.85,49.41,43.46-49.15,55.42,1.55,1.45,28.3-3.43,50.81-57.27Z" transform="translate(-57.44 -285.37)"/></g></svg>